# xmcd
#
# Track frame offsets:
#	150
#	20793
#	34487
#	51023
#	72693
#	89491
#	103394
#	121644
#	138226
#	157702
#	179881
#	197180
#	220491
#	238396
#	270178
#	287087
#	307761
#	320257
# Disc length: 4474 seconds
# Revision: 14
# Processed by: cddbd v1.5.2PL0 Copyright (c) Steve Scherf et al.
#
# Submitted via: libkcddb 0.10
#
DISCID=12117812
DTITLE=Jimmy Buffett - Meet Me In Margaritaville - Disc 2
DYEAR=2003
DGENRE=Pop/Rock, Country-Rock
TTITLE0=School Boy Heart
TTITLE1=Everybody's Talkin' (New Recording)
TTITLE2=Volcano
TTITLE3=Son of a Son of Sailor (New Recording)
TTITLE4=Take Another Road
TTITLE5=Knees Of My Heart (New Recording)
TTITLE6=In The Shelter (New Recording)
TTITLE7=Havana Daydreamin'
TTITLE8=Desperation Samba (Halloween in Tijuana) [Live - New Recording]
TTITLE9=Barefoot Children
TTITLE10=Saxophones (New Recording)
TTITLE11=Cowboy In The Jungle
TTITLE12=He Went To Paris (New Recording)
TTITLE13=Creola
TTITLE14=Bob Robert's Society Band
TTITLE15=A Pirate Looks At Forty - [Live - New Recording]
TTITLE16=Sail On Sailor (New Recording)
TTITLE17=The Captain And The Kid (New Recording)
EXTD=YEAR: 2003
EXTT0=
EXTT1=
EXTT2=
EXTT3=
EXTT4=
EXTT5=
EXTT6=
EXTT7=
EXTT8=
EXTT9=
EXTT10=
EXTT11=
EXTT12=
EXTT13=
EXTT14=
EXTT15=
EXTT16=
EXTT17=
PLAYORDER=
